<?xml version="1.0" standalone="no"?>
<!DOCTYPE svg PUBLIC "-//W3C//DTD SVG 20010904//EN"
 "http://www.w3.org/TR/2001/REC-SVG-20010904/DTD/svg10.dtd">
<svg version="1.0" xmlns="http://www.w3.org/2000/svg"
 width="512.000000pt" height="512.000000pt" viewBox="0 0 512.000000 512.000000"
 preserveAspectRatio="xMidYMid meet">

<g transform="translate(0.000000,512.000000) scale(0.100000,-0.100000)"
fill="#000000" stroke="none">
<path d="M2546 5100 c-74 -13 -184 -72 -238 -127 -34 -34 -115 -165 -281 -453
-128 -223 -241 -425 -251 -450 -23 -59 -32 -172 -17 -239 74 -348 507 -472
755 -217 40 42 470 773 516 879 81 183 14 416 -151 530 -96 66 -225 96 -333
77z m194 -171 c60 -27 117 -83 146 -144 28 -59 32 -159 10 -221 -8 -22 -113
-210 -233 -419 -240 -416 -279 -468 -367 -498 -112 -38 -232 -10 -309 72 -25
27 -54 66 -63 87 -21 49 -23 176 -3 220 8 17 113 203 234 414 235 410 274 464
356 493 65 23 174 21 229 -4z"/>
<path d="M3921 4433 c-32 -27 -37 -73 -12 -104 16 -21 33 -28 77 -34 113 -14
188 -65 234 -158 25 -52 31 -76 31 -130 0 -114 -13 -133 -279 -399 -130 -131
-242 -238 -248 -238 -20 0 -97 74 -130 126 -58 91 -86 192 -92 332 l-5 123
117 118 c128 130 138 152 90 196 -54 51 -47 56 -476 -372 -258 -258 -405 -413
-422 -443 -54 -99 -69 -217 -41 -325 22 -84 60 -147 126 -210 103 -98 235
-140 370 -117 145 25 141 21 630 511 489 489 486 485 511 628 23 135 -19 270
-117 372 -63 66 -126 104 -210 126 -78 20 -128 19 -154 -2z"/>
<path d="M376 4389 c-171 -24 -315 -157 -362 -332 -21 -78 -20 -680 1 -760 21
-83 50 -133 111 -197 62 -65 125 -103 209 -125 243 -63 492 94 544 343 14 67
15 639 1 712 -45 238 -263 393 -504 359z m189 -173 c63 -29 126 -97 151 -162
17 -45 19 -78 19 -379 l0 -330 -33 -68 c-53 -106 -137 -159 -257 -161 -120 -1
-217 62 -269 173 -20 44 -21 61 -21 386 l0 340 33 67 c51 105 137 157 257 158
53 0 82 -6 120 -24z"/>
<path d="M1594 3110 c-142 -15 -274 -70 -371 -155 -28 -25 -99 -108 -157 -184
-137 -181 -169 -206 -336 -266 -351 -124 -519 -262 -594 -487 -77 -230 -46
-492 93 -766 104 -205 388 -557 622 -770 102 -93 231 -190 263 -198 29 -7 69
14 86 46 21 39 1 69 -99 143 -53 39 -159 135 -236 212 -415 415 -615 762 -615
1069 0 182 47 303 157 407 82 77 165 122 349 189 76 28 159 63 184 77 69 41
155 127 246 248 45 61 105 132 134 159 88 83 214 126 366 126 265 0 579 -161
898 -461 290 -272 469 -570 521 -868 33 -184 12 -415 -51 -593 -126 -353 -421
-671 -740 -799 -233 -93 -512 -93 -789 1 -104 35 -136 30 -154 -22 -25 -70 29
-108 221 -157 401 -103 770 -30 1088 214 131 101 301 291 387 435 212 352 264
768 142 1135 -82 248 -234 480 -461 706 -404 403 -803 596 -1154 559z"/>
<path d="M4575 3106 c-65 -16 -57 -12 -514 -274 -437 -252 -466 -274 -527
-397 -32 -65 -37 -86 -41 -167 -4 -78 -2 -104 17 -157 59 -176 208 -293 391
-308 132 -11 156 0 694 311 360 208 417 251 469 346 32 59 56 150 56 215 0
280 -276 498 -545 431z m223 -170 c18 -9 52 -34 74 -54 118 -107 119 -302 2
-414 -22 -20 -129 -88 -239 -152 l-200 -115 -38 32 c-98 81 -150 229 -145 418
l3 114 145 84 c80 46 161 90 180 97 47 19 175 13 218 -10z"/>
<path d="M1396 2218 c-47 -10 -103 -43 -116 -68 -17 -32 -11 -70 15 -95 30
-31 55 -31 105 -2 37 20 42 21 67 7 36 -20 42 -61 14 -96 -27 -35 -26 -67 2
-100 65 -76 171 15 171 146 0 138 -124 238 -258 208z"/>
<path d="M1605 1615 c-66 -65 10 -246 129 -307 22 -11 65 -22 95 -25 47 -4 60
-2 84 17 29 23 36 64 17 100 -10 20 -59 40 -96 40 -13 0 -38 13 -55 28 -24 22
-33 40 -40 82 -6 37 -16 61 -30 73 -31 25 -75 22 -104 -8z"/>
<path d="M4270 1496 c-321 -30 -328 -31 -409 -72 -74 -37 -156 -116 -191 -183
-64 -127 -67 -278 -7 -403 70 -144 207 -238 362 -246 80 -4 531 30 635 48 30
6 83 24 117 40 345 169 317 674 -45 810 -81 31 -178 33 -462 6z m438 -160
c173 -88 215 -311 86 -455 -78 -87 -126 -97 -609 -132 -165 -11 -172 -11 -227
10 -117 45 -183 143 -183 271 0 91 24 150 85 209 66 63 112 75 410 104 304 29
368 28 438 -7z"/>
<path d="M2266 1348 c-47 -10 -103 -43 -116 -68 -19 -35 -12 -77 16 -99 34
-27 56 -26 104 2 37 20 42 21 67 7 34 -19 42 -63 18 -90 -26 -29 -24 -89 4
-111 72 -58 165 27 165 151 0 138 -124 238 -258 208z"/>
</g>
</svg>
